<?xml version="1.0" encoding="utf-8"?> <!-- Generator: IcoMoon.io --> <!DOCTYPE svg PUBLIC "-//W3C//DTD SVG 1.1//EN" "http://www.w3.org/Graphics/SVG/1.1/DTD/svg11.dtd"> <svg width="16.73540687561035" height="16.73537826538086" viewBox="0 0 16.73540687561035 16.73537826538086" xmlns="http://www.w3.org/2000/svg" xmlns:xlink="http://www.w3.org/1999/xlink" fill="#000000"><g><path d="M 14.897,1.166l-0.063-0.063c-1.471-1.471-3.878-1.471-5.349,0L 6.077,4.511 c-1.471,1.471-1.471,3.878,0,5.349l 0.063,0.063c 0.122,0.123, 0.252,0.233, 0.387,0.335l 1.248-1.248 c-0.145-0.086-0.283-0.189-0.408-0.313l-0.063-0.063c-0.799-0.798-0.799-2.098,0-2.897L 10.711,2.329 c 0.799-0.799, 2.098-0.799, 2.897,0l 0.063,0.063c 0.798,0.799, 0.798,2.098,0,2.897l-1.542,1.542 c 0.268,0.661, 0.395,1.366, 0.383,2.069l 2.384-2.384C 16.368,5.044, 16.368,2.637, 14.897,1.166zM 9.86,6.077c-0.122-0.122-0.252-0.233-0.387-0.335l-1.248,1.247c 0.145,0.086, 0.283,0.189, 0.408,0.313l 0.063,0.063 c 0.799,0.799, 0.799,2.098,0,2.897L 5.289,13.671c-0.799,0.798-2.098,0.798-2.897,0l-0.063-0.063 c-0.798-0.799-0.798-2.098,0-2.897l 1.542-1.542c-0.268-0.661-0.394-1.366-0.383-2.069l-2.384,2.384 c-1.471,1.471-1.471,3.878,0,5.349l 0.063,0.063c 1.471,1.471, 3.878,1.471, 5.349,0l 3.408-3.408 c 1.471-1.471, 1.471-3.878,0-5.349L 9.86,6.077z"></path></g></svg>